<svg width="168" height="168" viewBox="0 0 168 168" fill="none" xmlns="http://www.w3.org/2000/svg">
<path d="M167.333 118.917C167.333 149.25 149.249 167.333 118.916 167.333H108.999C104.416 167.333 100.666 163.583 100.666 159V110.917C100.666 108.667 102.499 106.75 104.749 106.75L119.416 106.5C120.583 106.417 121.583 105.583 121.833 104.417L124.749 88.5C124.806 88.1392 124.784 87.7705 124.684 87.4192C124.584 87.0679 124.41 86.7423 124.172 86.4651C123.934 86.1878 123.639 85.9654 123.307 85.8132C122.976 85.6609 122.615 85.5825 122.249 85.5833L104.499 85.8333C102.166 85.8333 100.333 84 100.249 81.75L99.916 61.3333C99.916 60 100.999 58.8333 102.416 58.8333L122.416 58.5C123.833 58.5 124.916 57.4167 124.916 56L124.583 36C124.583 34.5833 123.499 33.5 122.083 33.5L99.5827 33.8333C96.2982 33.8832 93.0558 34.5808 90.0414 35.886C87.027 37.1913 84.2998 39.0785 82.0161 41.4397C79.7323 43.8008 77.937 46.5894 76.733 49.6456C75.5289 52.7019 74.9398 55.9657 74.9994 59.25L75.416 82.1667C75.4994 84.5 73.666 86.3333 71.3327 86.4167L61.3327 86.5833C59.916 86.5833 58.8327 87.6667 58.8327 89.0833L59.0827 104.917C59.0827 106.333 60.166 107.417 61.5827 107.417L71.5827 107.25C73.916 107.25 75.7494 109.083 75.8327 111.333L76.5827 158.833C76.666 163.5 72.916 167.333 68.2494 167.333H49.0827C18.7493 167.333 0.666016 149.25 0.666016 118.833V49.0833C0.666016 18.75 18.7493 0.666664 49.0827 0.666664H118.916C149.249 0.666664 167.333 18.75 167.333 49.0833V118.917Z" fill="#0042EB"/>
</svg>
