<svg xmlns="http://www.w3.org/2000/svg" width="256" height="256" viewBox="0 0 100 100"><rect width="100" height="100" rx="50" fill="#6a8c47"></rect><path fill="#fff" d="M73.53 65.39L73.53 65.39Q73.53 70.07 71.24 73.81Q68.94 77.54 65.03 79.75Q61.11 81.95 56.34 81.95L56.34 81.95L26.46 81.95L26.46 18.05L56.25 18.05Q60.75 18.05 64.04 20.44Q67.32 22.82 69.08 26.56Q70.83 30.29 70.83 34.34L70.83 34.34Q70.83 39.11 68.41 43.21Q65.97 47.30 61.65 49.19L61.65 49.19Q67.14 50.81 70.34 55.27Q73.53 59.72 73.53 65.39ZM68.94 64.76L68.94 64.76Q68.94 61.34 67.37 58.37Q65.79 55.40 63.09 53.51Q60.39 51.62 56.97 51.62L56.97 51.62L31.05 51.62L31.05 77.81L56.34 77.81Q59.85 77.81 62.73 75.97Q65.61 74.12 67.28 71.11Q68.94 68.09 68.94 64.76ZM54.99 22.19L31.05 22.19L31.05 47.75L54.45 47.75Q57.96 47.75 60.62 45.91Q63.27 44.06 64.81 41.14Q66.33 38.21 66.33 34.97L66.33 34.97Q66.33 31.46 64.89 28.58Q63.45 25.70 60.89 23.95Q58.32 22.19 54.99 22.19L54.99 22.19Z"></path></svg>