<svg width="268" height="50" viewBox="0 0 268 50" fill="none" xmlns="http://www.w3.org/2000/svg">
<path d="M4.74334 31.1603C6.96442 31.1943 12.2711 30.6257 14.3572 31.86C13.8742 30.9123 12.9194 30.1591 11.9349 29.4307C11.3234 28.9783 8.02194 29.2853 7.22027 29.273C5.10283 29.2406 5.62927 27.8912 5.64678 26.7462C5.67014 25.2185 9.76752 24.9009 9.99812 23.3261C10.0826 22.7493 10.864 21.465 11.2213 20.8778L11.23 20.8636C12.0999 19.4337 11.0137 18.2824 13.8318 18.6145C16.079 18.8793 18.1883 19.0448 20.542 19.0808C22.5649 19.1117 26.8714 18.9865 27.9378 17.6538C28.8513 16.5121 29.9967 15.536 31.0904 14.5361C32.8261 12.9491 32.741 12.0205 32.7718 10.0056C32.7901 8.81147 32.5278 7.40289 34.4602 6.9725L34.512 6.96095C35.6756 6.70162 37.533 6.28767 38.7329 6.73838C41.2263 7.67492 39.5728 9.62655 40.8172 11.0057C41.7688 12.0603 45.072 11.8512 46.6808 12.1649C48.5758 12.5343 50.1033 12.4127 51.2862 13.6043C52.3082 14.6339 52.8221 15.3951 54.415 15.941C55.2881 16.2402 56.1361 16.4416 56.8478 16.9408C57.588 17.46 57.9991 18.1387 58.7024 18.659C59.4719 19.2284 60.9833 18.963 61.5212 19.7931C63.5799 22.9702 67.9802 23.2716 72.6026 23.3423C75.8105 23.3914 79.0752 23.3073 82.2505 23.0193C84.6917 22.7978 87.2558 23.0233 89.6586 22.7475C92.879 22.378 95.8393 22.1576 99.1307 22.2079C101.91 22.2504 103.93 21.3948 106.52 21.1872C109.335 20.9617 111.336 19.6993 114.185 19.7429L122.901 19.8762C127.549 19.9473 125.278 24.7973 122.541 25.8387C120.858 26.4788 119.937 27.0647 118.36 27.8925C116.773 28.7254 117.359 30.8244 117.34 32.1123L117.272 36.5178C117.25 37.948 116.633 37.9487 115.861 39.0203C112.119 44.2111 120.536 46.8553 126.268 47.6289C127.911 47.8506 129.307 47.5225 130.827 48.1906C132.333 48.8529 132.131 49.2801 134.153 49.311C135.932 49.3382 135.517 48.0992 134.842 47.2253C133.795 45.8707 130.015 45.5376 128.221 44.8138C125.824 43.8465 120.076 43.3536 121.629 40.5631C122.194 39.5487 124.915 38.8343 123.409 37.4031C122.223 36.2763 122.124 35.5271 122.145 34.1324C122.196 30.836 122.565 28.4647 127.205 27.3433C129.156 26.8716 131.131 26.1626 133.283 26.1956C136.426 26.2436 137.037 24.888 139.708 23.8339C143.766 22.2318 147.839 20.6426 152.563 20.7149C156.433 20.7741 158.462 21.9602 162.126 22.0163C163.514 22.0375 164.544 21.9375 165.863 21.6884C167.053 21.4637 167.684 20.6277 168.985 20.581C170.936 20.511 172.939 20.6415 174.895 20.6714C180.116 20.7512 185.124 20.35 187.861 23.9928C188.891 25.3645 187.931 28.8649 191.128 29.0054C192.832 29.0803 194.555 29.0578 196.261 29.0839C197.963 29.1099 200.15 28.5956 200.127 30.1056C200.105 31.5176 199.078 32.9277 197.65 33.9181C194.421 36.1581 190.579 37.1788 186.678 38.8627C184.055 39.9948 187.177 40.586 188.423 39.9162C189.963 39.0889 191.736 39.7054 193.275 38.8781C194.491 38.2247 195.931 38.1186 197.003 37.2024C197.749 36.5642 198.157 35.6399 198.976 35.0721C200.217 34.2111 202.835 34.575 204.387 34.5987C205.391 34.6141 211.903 34.8159 211.24 33.5484C210.439 32.0181 209.518 31.2365 207.89 30.0318C206.012 28.6426 205.627 27.302 202.827 27.2592C201.286 27.2356 199.886 26.8291 198.267 26.8044C193.808 26.7362 193.765 24.4053 193.806 21.7307C193.849 18.9218 200.268 19.223 203.02 18.5774C205.968 17.8858 208.045 16.9295 211.082 16.5188C213.843 16.1455 216.612 15.6087 219.284 15.1041C221.167 14.7485 222.815 13.7036 224.828 13.7343C227.234 13.7711 228.966 12.4209 230.272 11.101C231.858 9.49791 232.68 8.15522 234.872 7.04287C235.863 6.54009 238.038 5.12681 239.201 5.09833C240.993 5.05442 242.786 4.76812 244.818 4.7992C246.223 4.82069 248.429 5.15919 249.686 4.68114C251.258 4.08309 252.242 2.68382 254.285 2.63378C255.914 2.59386 257.543 2.35527 259.126 2.32278C260.315 2.29837 268.157 2.56009 267.433 1.87227C265.643 0.17233 260.44 1.66248 258.063 1.53646C251.727 1.2004 243.076 -0.351826 237.335 2.16063C234.43 3.43182 232.592 3.96424 230.172 5.94422C227.898 7.80444 225.321 8.82206 222.762 10.2374C219.148 12.2361 213.915 10.9316 209.551 11.2119C206.812 11.3879 205.19 12.8608 202.832 13.3124C199.914 13.8712 196.172 14.3185 193.603 15.4814C189.862 17.1754 187.533 17.2184 182.956 16.7304C179.922 16.4069 177.058 15.9201 174.017 15.6311C170.5 15.297 167.077 15.1613 163.516 15.1069C160.634 15.0628 158.084 16.0266 155.32 16.1366C154.114 16.1846 153.668 17.1902 152.497 17.2485C150.97 17.3245 149.372 17.2008 147.84 17.1773L137.454 17.0185C132.173 16.9377 129.471 13.4311 124.075 13.3485C121.557 13.31 117.925 14.7633 115.712 15.5522C112.986 16.5243 110.708 16.3111 107.842 16.7795C95.8042 18.7462 84.1616 18.7643 71.9434 17.6423C64.9555 17.0006 60.8111 12.3872 54.2531 10.9117C51.6919 10.3354 49.1067 9.33407 47.9752 7.56424C46.9364 5.9395 47.7194 4.43243 46.1946 2.95936C42.6841 -0.432158 39.4874 0.100338 34.5245 0.812912C31.9125 1.18795 28.7646 2.81615 27.7188 4.64475C26.8376 6.18556 27.9204 7.73843 27.9466 9.26867C27.9732 10.8171 27.7896 12.1441 27.3131 13.6013C26.6569 15.6081 23.5939 15.2771 21.4366 15.2441C17.4613 15.1833 13.7783 14.742 9.77209 14.6807C6.48193 14.6304 6.74673 15.0057 7.67958 16.8092C8.387 18.1768 7.89709 20.1557 7.87527 21.5823C7.85618 22.8306 6.3006 23.2201 5.03429 23.8491C3.75999 24.482 3.00125 25.3008 1.89483 26.1113C0.605505 27.0558 -0.471079 27.9077 1.01462 29.007C2.11548 29.8215 2.97805 31.1333 4.74334 31.1603Z" fill="#9F7A63"/>
</svg>
