<svg width="137" height="55" viewBox="0 0 137 55" fill="none" xmlns="http://www.w3.org/2000/svg">
<path d="M18.21 37V18.566H20.55V28.758L30.066 18.54H32.588L25.178 26.678L33.004 37H30.378L23.696 28.082L20.55 31.358V37H18.21ZM42.7889 37.13C41.3156 37.13 40.0763 36.8787 39.0709 36.376C38.0656 35.856 37.2596 35.1627 36.6529 34.296C36.0463 33.412 35.6043 32.4153 35.3269 31.306C35.0496 30.1967 34.9109 29.0527 34.9109 27.874V18.54H37.2509V27.874C37.2509 28.7753 37.3376 29.6593 37.5109 30.526C37.7016 31.3753 38.0049 32.138 38.4209 32.814C38.8369 33.49 39.4003 34.0273 40.1109 34.426C40.8216 34.8247 41.7056 35.024 42.7629 35.024C43.8376 35.024 44.7303 34.8247 45.4409 34.426C46.1516 34.01 46.7149 33.464 47.1309 32.788C47.5469 32.0947 47.8416 31.3233 48.0149 30.474C48.2056 29.6247 48.3009 28.758 48.3009 27.874V18.54H50.6409V27.874C50.6409 29.122 50.4936 30.3093 50.1989 31.436C49.9216 32.5453 49.4709 33.5247 48.8469 34.374C48.2229 35.2233 47.4083 35.8993 46.4029 36.402C45.4149 36.8873 44.2103 37.13 42.7889 37.13ZM54.7979 37V18.54H62.7019C63.5166 18.54 64.2619 18.7133 64.9379 19.06C65.6139 19.3893 66.2032 19.84 66.7059 20.412C67.2086 20.9667 67.5986 21.5993 67.8759 22.31C68.1532 23.0033 68.2919 23.714 68.2919 24.442C68.2919 25.2913 68.1272 26.0973 67.7979 26.86C67.4859 27.6227 67.0352 28.2727 66.4459 28.81C65.8739 29.3473 65.1979 29.72 64.4179 29.928L68.8899 37H66.2379L62.0259 30.37H57.1379V37H54.7979ZM57.1379 28.29H62.7279C63.3692 28.29 63.9239 28.1167 64.3919 27.77C64.8772 27.406 65.2499 26.9293 65.5099 26.34C65.7872 25.7507 65.9259 25.118 65.9259 24.442C65.9259 23.7487 65.7699 23.116 65.4579 22.544C65.1459 21.9547 64.7386 21.4867 64.2359 21.14C63.7332 20.7933 63.1786 20.62 62.5719 20.62H57.1379V28.29ZM71.898 18.54L78.008 34.062L84.092 18.54H86.562L79.074 37H76.942L69.428 18.54H71.898Z" fill="#F1A008"/>
<rect x="0.5" y="0.5" width="136" height="54" rx="1.5" stroke="#F1A008"/>
<rect x="98.5" y="19.5" width="21" height="19.5" rx="0.5" stroke="#F1A008" stroke-width="1.5" stroke-linecap="round" stroke-linejoin="round"/>
<path d="M103 19.5C103 16.1863 105.686 13.5 109 13.5C112.314 13.5 115 16.1863 115 19.5" stroke="#F1A008" stroke-width="1.5" stroke-linecap="round" stroke-linejoin="round"/>
</svg>
