<svg width="24" height="24" viewBox="0 0 24 24" fill="none" xmlns="http://www.w3.org/2000/svg">
<path d="M14.5415 6.16659C15.3555 6.32539 16.1035 6.72347 16.6899 7.30986C17.2763 7.89626 17.6744 8.64431 17.8332 9.45825M14.5415 2.83325C16.2326 3.02112 17.8095 3.7784 19.0134 4.98076C20.2173 6.18312 20.9765 7.75909 21.1665 9.44992M20.3332 16.0999V18.5999C20.3341 18.832 20.2866 19.0617 20.1936 19.2744C20.1006 19.487 19.9643 19.6779 19.7933 19.8348C19.6222 19.9917 19.4203 20.1112 19.2005 20.1855C18.9806 20.2599 18.7477 20.2875 18.5165 20.2666C15.9522 19.988 13.489 19.1117 11.3249 17.7083C9.31139 16.4288 7.60431 14.7217 6.32486 12.7083C4.91651 10.5343 4.04007 8.05908 3.76653 5.48325C3.7457 5.25281 3.77309 5.02055 3.84695 4.80127C3.9208 4.58199 4.03951 4.38049 4.1955 4.2096C4.3515 4.03871 4.54137 3.90218 4.75302 3.80869C4.96468 3.7152 5.19348 3.6668 5.42486 3.66659H7.92486C8.32928 3.6626 8.72136 3.80582 9.028 4.06953C9.33464 4.33324 9.53493 4.69946 9.59153 5.09992C9.69705 5.89997 9.89274 6.68552 10.1749 7.44159C10.287 7.73986 10.3112 8.06401 10.2448 8.37565C10.1783 8.68729 10.0239 8.97334 9.79986 9.19992L8.74153 10.2583C9.92783 12.3445 11.6552 14.072 13.7415 15.2583L14.7999 14.1999C15.0264 13.9759 15.3125 13.8215 15.6241 13.755C15.9358 13.6885 16.2599 13.7128 16.5582 13.8249C17.3143 14.107 18.0998 14.3027 18.8999 14.4083C19.3047 14.4654 19.6744 14.6693 19.9386 14.9812C20.2029 15.2931 20.3433 15.6912 20.3332 16.0999Z" stroke="#E2E2E2" stroke-width="1.5" stroke-linecap="round" stroke-linejoin="round"/>
</svg>
